<mxfile host="app.diagrams.net" modified="2024-07-16T11:27:32.406Z" agent="Mozilla/5.0 (Macintosh; Intel Mac OS X 10_15_7) AppleWebKit/537.36 (KHTML, like Gecko) Chrome/126.0.0.0 Safari/537.36" version="24.6.5" etag="2w3GLtvKH1mwxJ4Sf2ry" type="github">
  <diagram name="Page-1" id="XwL2P14R1yLDbkLT9v3I">
    <mxGraphModel>
      <root>
        <mxCell id="0" />
        <mxCell id="1" parent="0" />
      </root>
    </mxGraphModel>
  </diagram>
</mxfile>
